<svg id="Capa_1" data-name="Capa 1" xmlns="http://www.w3.org/2000/svg" viewBox="0 0 45.58 39.52"><defs><style>.cls-1{fill:#fff;}</style></defs><path class="cls-1" d="M45.54,6.61a.65.65,0,0,0-.15-.23L38.07,0H7.52L.2,6.38A.69.69,0,0,0,0,6.61H0V39.52H45.58V6.61Zm-7.9-5.48,6.29,5.48H28L25.66,1.13ZM18.58,7.75H27v4.19H18.58Zm5.85-6.62,2.29,5.48H18.87l2.28-5.48Zm-16.49,0h12L17.64,6.61h-16ZM18.58,38.39V34.2H27v4.19Zm25.87,0H28.13V33.06H17.45v5.33H1.13V7.75H17.45v5.32H28.13V7.75H44.45Z"/><polygon class="cls-1" points="18.07 17.11 17.23 16.35 12.07 22.1 17.27 26.71 18.02 25.86 14.37 22.62 33.08 22.62 33.08 21.49 14.14 21.49 18.07 17.11"/></svg>