<svg id="Capa_1" data-name="Capa 1" xmlns="http://www.w3.org/2000/svg" viewBox="0 0 87.02 43.78"><defs><style>.cls-1{fill:#fff;}</style></defs><rect class="cls-1" x="17.92" y="15.17" width="1.13" height="2.38"/><rect class="cls-1" x="17.92" y="21.14" width="1.13" height="2.75"/><path class="cls-1" d="M31.57,30.61A6.6,6.6,0,0,0,25,36.37h-6V28.23H17.92V37.5H25a6.58,6.58,0,1,0,6.57-6.89Zm0,12A5.45,5.45,0,1,1,37,37.19,5.45,5.45,0,0,1,31.57,42.64Z"/><path class="cls-1" d="M87,24.37l-7.81-4.71L75.47,8.45H60.93V0h-43V10.61h1.14V1.13H59.8V36.37H43.1V37.5H64.41a6.57,6.57,0,0,0,13.13,0H87ZM78,19.47H68V12.89h7.71ZM71,42.64a5.45,5.45,0,1,1,5.45-5.45A5.45,5.45,0,0,1,71,42.64Zm14.9-6.27H77.5a6.58,6.58,0,0,0-13,0H60.93V9.58H74.65l.73,2.17H66.9V20.6H78.58L85.88,25Z"/><rect class="cls-1" x="5.14" y="12.49" width="26.43" height="1.13"/><rect class="cls-1" y="18.92" width="31.57" height="1.13"/><rect class="cls-1" x="5.14" y="25.35" width="26.43" height="1.13"/></svg>