<svg id="Capa_1" data-name="Capa 1" xmlns="http://www.w3.org/2000/svg" viewBox="0 0 46.11 46.11"><defs><style>.cls-1{fill:#fff;}</style></defs><path class="cls-1" d="M23.06,0A23.06,23.06,0,1,0,46.11,23.06,23.08,23.08,0,0,0,23.06,0Zm0,45A21.93,21.93,0,1,1,45,23.06,22,22,0,0,1,23.06,45Z"/><path class="cls-1" d="M25.81,20.26,23.06,11.8,20.3,20.26H11.4l7.21,5.24L15.84,34l7.22-5.24L30.27,34,27.5,25.5l7.21-5.24ZM28.1,31l-5-3.67L18,31l1.93-5.94L14.89,21.4h6.24l1.93-5.93L25,21.4h6.24l-5,3.66Z"/><path class="cls-1" d="M23.06,6.73A16.33,16.33,0,1,0,39.38,23.06,16.35,16.35,0,0,0,23.06,6.73Zm0,31.51A15.19,15.19,0,1,1,38.24,23.06,15.2,15.2,0,0,1,23.06,38.24Z"/></svg>