<svg id="Capa_1" data-name="Capa 1" xmlns="http://www.w3.org/2000/svg" viewBox="0 0 56.82 56.82"><defs><style>.cls-1{fill:#fff;}</style></defs><path class="cls-1" d="M45.5,15.48A7,7,0,0,0,43.86,13a6.83,6.83,0,0,0-2.52-1.64,12.25,12.25,0,0,0-4.07-.76c-2.32-.1-3-.12-8.86-.12s-6.55,0-8.86.12a12.13,12.13,0,0,0-4.07.76,7.26,7.26,0,0,0-4.16,4.16,12.13,12.13,0,0,0-.76,4.07c-.1,2.31-.12,3-.12,8.86s0,6.54.12,8.86a12.25,12.25,0,0,0,.76,4.07A6.83,6.83,0,0,0,13,43.86a7,7,0,0,0,2.52,1.64,11.94,11.94,0,0,0,4.07.75c2.31.11,3,.13,8.86.13s6.55,0,8.86-.13a12.06,12.06,0,0,0,4.07-.75,7.26,7.26,0,0,0,4.16-4.16,12.06,12.06,0,0,0,.75-4.07c.11-2.32.13-3,.13-8.86s0-6.55-.13-8.86A11.94,11.94,0,0,0,45.5,15.48ZM28.41,39.67A11.26,11.26,0,1,1,39.67,28.41,11.26,11.26,0,0,1,28.41,39.67Zm11.7-20.33a2.63,2.63,0,1,1,2.63-2.63A2.63,2.63,0,0,1,40.11,19.34Z"/><path class="cls-1" d="M47.51,0H9.31A9.31,9.31,0,0,0,0,9.31v38.2a9.31,9.31,0,0,0,9.31,9.31h38.2a9.31,9.31,0,0,0,9.31-9.31V9.31A9.31,9.31,0,0,0,47.51,0ZM50.2,37.45a16.27,16.27,0,0,1-1,5.32,11.24,11.24,0,0,1-6.41,6.41,16.27,16.27,0,0,1-5.32,1c-2.34.11-3.09.13-9,.13s-6.7,0-9-.13a16.21,16.21,0,0,1-5.32-1,11.24,11.24,0,0,1-6.41-6.41,15.76,15.76,0,0,1-1-5.32c-.11-2.34-.13-3.09-.13-9s0-6.7.13-9a15.71,15.71,0,0,1,1-5.32,11.24,11.24,0,0,1,6.41-6.41,15.71,15.71,0,0,1,5.32-1c2.34-.11,3.08-.13,9-.13s6.7,0,9,.13a15.76,15.76,0,0,1,5.32,1,11.24,11.24,0,0,1,6.41,6.41,16.21,16.21,0,0,1,1,5.32c.11,2.34.13,3.08.13,9S50.31,35.11,50.2,37.45Z"/><circle class="cls-1" cx="28.41" cy="28.41" r="7.31" transform="translate(-5.77 7.29) rotate(-13.28)"/></svg>