<?xml version="1.0" encoding="utf-8"?>
<!-- Generator: Adobe Illustrator 25.2.1, SVG Export Plug-In . SVG Version: 6.00 Build 0)  -->
<svg version="1.1" id="Capa_1" xmlns="http://www.w3.org/2000/svg" xmlns:xlink="http://www.w3.org/1999/xlink" x="0px" y="0px"
	 viewBox="0 0 66.56 31.93" style="enable-background:new 0 0 66.56 31.93;" xml:space="preserve">
<style type="text/css">
	.st0{fill:#1E1E1C;}
	.st1{fill:none;stroke:#1E1E1C;stroke-width:1.1863;stroke-miterlimit:10;}
</style>
<g>
	<g>
		<g>
			<g>
				<path class="st0" d="M62.62,23.54c-0.05,0.22-0.1,0.43-0.15,0.65l2.9,0.79c0.07-0.21,0.13-0.42,0.19-0.64L62.62,23.54z"/>
				<path class="st0" d="M64.71,26.82l-2.76-0.75c-0.07,0.21-0.14,0.42-0.21,0.63l2.71,0.73C64.53,27.24,64.62,27.03,64.71,26.82z"
					/>
				<path class="st0" d="M63.29,18.21c-0.01,0.22-0.02,0.45-0.04,0.67l3.17,0.7c0.02-0.22,0.04-0.44,0.05-0.67L63.29,18.21z"/>
				<path class="st0" d="M66.56,16.45L63.32,16c0.01,0.22,0.01,0.43,0.01,0.65c0,0,0,0.01,0,0.02l3.23,0.45c0-0.16,0-0.31,0-0.47
					C66.56,16.59,66.56,16.52,66.56,16.45z"/>
				<path class="st0" d="M63.22,13.93c0.01,0.22,0.03,0.44,0.04,0.66h3.23c-0.01-0.22-0.03-0.44-0.05-0.66H63.22z"/>
				<path class="st0" d="M61.18,5.21l2.52-0.73c-0.12-0.2-0.25-0.39-0.38-0.58l-2.41,0.7C61,4.8,61.09,5.01,61.18,5.21z"/>
				<path class="st0" d="M62.74,10.35l2.99-0.78c-0.05-0.22-0.11-0.43-0.17-0.64L62.61,9.7C62.65,9.92,62.7,10.13,62.74,10.35z"/>
				<path class="st0" d="M63.09,12.58l3.14-0.48c-0.03-0.22-0.07-0.44-0.11-0.65L63,11.92C63.03,12.14,63.06,12.36,63.09,12.58z"/>
				<path class="st0" d="M64.68,6.42l-2.75,0.77c0.07,0.21,0.13,0.42,0.2,0.63l2.81-0.78C64.85,6.83,64.77,6.62,64.68,6.42z"/>
				<path class="st0" d="M66.17,21.56l-3.08-0.85c-0.03,0.22-0.06,0.44-0.09,0.66l3.06,0.85C66.1,22,66.14,21.78,66.17,21.56z"/>
				<path class="st0" d="M60.89,28.74c-0.1,0.21-0.2,0.41-0.3,0.6l2.32,0.62c0.15-0.18,0.29-0.37,0.43-0.57L60.89,28.74z"/>
				<polygon class="st0" points="7.08,13.93 0,11.83 2.42,13.93 0,16.02 				"/>
				<g>
					<path class="st0" d="M3.84,18.84c-0.01-0.22-0.03-0.45-0.04-0.68l-3.72,1.02l0.17,0.64L3.84,18.84z"/>
					<path class="st0" d="M0.71,22.49l3.41-0.95c-0.03-0.22-0.06-0.44-0.09-0.66l-3.5,0.97L0.71,22.49z"/>
					<path class="st0" d="M2.25,27.73l3.18-0.86c-0.07-0.21-0.15-0.41-0.21-0.63l-3.25,0.88C2.05,27.33,2.15,27.53,2.25,27.73z"/>
					<path class="st0" d="M4.52,9.6L1.06,8.65C1,8.86,0.94,9.07,0.88,9.29l3.5,0.96C4.43,10.03,4.47,9.81,4.52,9.6z"/>
					<path class="st0" d="M5.92,4.24L3.46,3.57C3.32,3.76,3.19,3.95,3.05,4.15l2.7,0.73L5.92,4.24z"/>
					<path class="st0" d="M4.52,23.71l-3.46,0.93c0.06,0.22,0.13,0.43,0.2,0.63l3.42-0.92C4.61,24.14,4.57,23.92,4.52,23.71z"/>
					<path class="st0" d="M3.41,29.68c0.15,0.2,0.3,0.39,0.46,0.56L6.6,29.5c-0.1-0.2-0.21-0.4-0.31-0.6L3.41,29.68z"/>
					<path class="st0" d="M5.03,7.64c0.07-0.21,0.13-0.43,0.21-0.63l-3.24-0.9c-0.09,0.2-0.18,0.4-0.26,0.61L5.03,7.64z"/>
				</g>
			</g>
		</g>
	</g>
</g>
<polygon class="st1" points="33.28,23.66 24.03,30.38 27.56,19.51 18.32,12.79 29.75,12.79 33.28,1.92 36.82,12.79 48.24,12.79 
	39,19.51 42.53,30.38 "/>
<polygon class="st0" points="39.41,26.08 37.06,18.88 43.19,14.43 35.62,14.43 33.28,7.23 30.94,14.43 23.37,14.43 29.5,18.88 
	27.15,26.08 33.28,21.63 "/>
</svg>
