<?xml version="1.0" encoding="utf-8"?>
<!-- Generator: Adobe Illustrator 25.2.1, SVG Export Plug-In . SVG Version: 6.00 Build 0)  -->
<svg version="1.1" id="Capa_1" xmlns="http://www.w3.org/2000/svg" xmlns:xlink="http://www.w3.org/1999/xlink" x="0px" y="0px"
	 viewBox="0 0 50.84 31.93" style="enable-background:new 0 0 50.84 31.93;" xml:space="preserve">
<g>
	<path d="M46.76,24.18l2.9,0.79c0.07-0.21,0.13-0.42,0.19-0.64l-2.95-0.8C46.85,23.75,46.8,23.97,46.76,24.18z"/>
	<path d="M46.01,26.7l2.71,0.73c0.09-0.2,0.18-0.4,0.27-0.61l-2.76-0.75C46.15,26.29,46.08,26.5,46.01,26.7z"/>
	<path d="M47.53,18.88l3.17,0.7c0.02-0.22,0.04-0.44,0.05-0.67l-3.19-0.7C47.56,18.43,47.55,18.66,47.53,18.88z"/>
	<path d="M50.84,16.45L47.6,16c0.01,0.22,0.01,0.43,0.01,0.65c0,0,0,0.01,0,0.02l3.23,0.45c0-0.16,0-0.31,0-0.47
		C50.84,16.59,50.84,16.52,50.84,16.45z"/>
	<path d="M47.54,14.59h3.23c-0.01-0.22-0.03-0.44-0.05-0.66H47.5C47.52,14.15,47.53,14.37,47.54,14.59z"/>
	<path d="M47.98,4.49c-0.12-0.2-0.25-0.39-0.38-0.58l-2.41,0.7c0.09,0.2,0.18,0.4,0.28,0.61L47.98,4.49z"/>
	<path d="M47.02,10.35l2.99-0.78c-0.05-0.22-0.11-0.43-0.17-0.64L46.88,9.7C46.93,9.92,46.97,10.13,47.02,10.35z"/>
	<path d="M47.37,12.58l3.14-0.48c-0.03-0.22-0.07-0.44-0.11-0.65l-3.12,0.48C47.31,12.14,47.34,12.36,47.37,12.58z"/>
	<path d="M46.4,7.82l2.81-0.78c-0.08-0.21-0.16-0.42-0.25-0.62l-2.75,0.77C46.27,7.4,46.34,7.61,46.4,7.82z"/>
	<path d="M47.28,21.37l3.06,0.85c0.04-0.21,0.08-0.43,0.11-0.65l-3.08-0.85C47.34,20.93,47.31,21.15,47.28,21.37z"/>
	<path d="M44.86,29.34l2.32,0.62c0.15-0.18,0.29-0.37,0.43-0.57l-2.44-0.66C45.07,28.94,44.96,29.15,44.86,29.34z"/>
	<polygon points="2.42,13.93 0,16.02 7.08,13.93 0,11.83 	"/>
	<path d="M3.81,18.16l-3.72,1.02l0.17,0.64l3.59-0.98C3.83,18.62,3.82,18.39,3.81,18.16z"/>
	<path d="M4.03,20.88l-3.5,0.97l0.18,0.64l3.41-0.95C4.09,21.33,4.06,21.11,4.03,20.88z"/>
	<path d="M5.21,26.24l-3.25,0.88c0.09,0.21,0.19,0.41,0.29,0.61l3.18-0.86C5.36,26.66,5.28,26.46,5.21,26.24z"/>
	<path d="M4.52,9.6L1.06,8.65C1,8.86,0.94,9.07,0.88,9.29l3.5,0.96C4.43,10.03,4.47,9.81,4.52,9.6z"/>
	<path d="M5.92,4.24L3.46,3.57C3.32,3.76,3.19,3.95,3.05,4.15l2.7,0.73L5.92,4.24z"/>
	<path d="M4.52,23.71l-3.46,0.93c0.06,0.22,0.13,0.43,0.2,0.63l3.42-0.92C4.61,24.14,4.57,23.92,4.52,23.71z"/>
	<path d="M3.41,29.68c0.15,0.2,0.3,0.39,0.46,0.56L6.6,29.5c-0.1-0.2-0.21-0.4-0.31-0.6L3.41,29.68z"/>
	<path d="M5.23,7.01l-3.24-0.9c-0.09,0.2-0.18,0.4-0.26,0.61l3.3,0.92C5.09,7.43,5.16,7.22,5.23,7.01z"/>
	<path d="M29.38,12.2L25.42,0l-3.96,12.2H8.63l10.38,7.54l-3.96,12.2l10.38-7.54l10.38,7.54l-3.96-12.2l10.38-7.54H29.38z
		 M33.54,28.82l-8.12-5.9l-8.12,5.9l3.1-9.54l-8.12-5.9h10.04l3.1-9.54l3.1,9.54h10.03l-8.12,5.9L33.54,28.82z"/>
	<polygon points="27.76,14.43 25.42,7.23 23.08,14.43 15.51,14.43 21.63,18.88 19.29,26.08 25.42,21.63 31.54,26.08 29.2,18.88 
		35.33,14.43 	"/>
</g>
</svg>
