<?xml version="1.0" encoding="utf-8"?>
<!-- Generator: Adobe Illustrator 25.2.1, SVG Export Plug-In . SVG Version: 6.00 Build 0)  -->
<svg version="1.1" id="Capa_1" xmlns="http://www.w3.org/2000/svg" xmlns:xlink="http://www.w3.org/1999/xlink" x="0px" y="0px"
	 viewBox="0 0 66.56 31.93" style="enable-background:new 0 0 66.56 31.93;" xml:space="preserve">
<g>
	<path d="M62.48,24.18l2.9,0.79c0.07-0.21,0.13-0.42,0.19-0.64l-2.95-0.8C62.58,23.75,62.53,23.97,62.48,24.18z"/>
	<path d="M61.73,26.7l2.71,0.73c0.09-0.2,0.18-0.4,0.27-0.61l-2.76-0.75C61.88,26.29,61.8,26.5,61.73,26.7z"/>
	<path d="M63.25,18.88l3.17,0.7c0.02-0.22,0.04-0.44,0.05-0.67l-3.19-0.7C63.28,18.43,63.27,18.66,63.25,18.88z"/>
	<path d="M66.56,16.45L63.32,16c0.01,0.22,0.01,0.43,0.01,0.65c0,0,0,0.01,0,0.02l3.23,0.45c0-0.16,0-0.31,0-0.47
		C66.56,16.59,66.56,16.52,66.56,16.45z"/>
	<path d="M63.27,14.59h3.23c-0.01-0.22-0.03-0.44-0.05-0.66h-3.22C63.24,14.15,63.25,14.37,63.27,14.59z"/>
	<path d="M63.7,4.49c-0.12-0.2-0.25-0.39-0.38-0.58l-2.41,0.7c0.09,0.2,0.18,0.4,0.28,0.61L63.7,4.49z"/>
	<path d="M62.74,10.35l2.99-0.78c-0.05-0.22-0.11-0.43-0.17-0.64L62.61,9.7C62.65,9.92,62.7,10.13,62.74,10.35z"/>
	<path d="M63.09,12.58l3.14-0.48c-0.03-0.22-0.07-0.44-0.11-0.65L63,11.92C63.03,12.14,63.06,12.36,63.09,12.58z"/>
	<path d="M62.12,7.82l2.81-0.78c-0.08-0.21-0.16-0.42-0.25-0.62l-2.75,0.77C62,7.4,62.06,7.61,62.12,7.82z"/>
	<path d="M63,21.37l3.06,0.85c0.04-0.21,0.08-0.43,0.11-0.65l-3.08-0.85C63.06,20.93,63.04,21.15,63,21.37z"/>
	<path d="M60.58,29.34l2.32,0.62c0.15-0.18,0.29-0.37,0.43-0.57l-2.44-0.66C60.79,28.94,60.69,29.15,60.58,29.34z"/>
	<polygon points="2.42,13.93 0,16.02 7.08,13.93 0,11.83 	"/>
	<path d="M3.81,18.16l-3.72,1.02l0.17,0.64l3.59-0.98C3.83,18.62,3.82,18.39,3.81,18.16z"/>
	<path d="M4.03,20.88l-3.5,0.97l0.18,0.64l3.41-0.95C4.09,21.33,4.06,21.11,4.03,20.88z"/>
	<path d="M5.21,26.24l-3.25,0.88c0.09,0.21,0.19,0.41,0.29,0.61l3.18-0.86C5.36,26.66,5.28,26.46,5.21,26.24z"/>
	<path d="M4.52,9.6L1.06,8.65C1,8.86,0.94,9.07,0.88,9.29l3.5,0.96C4.43,10.03,4.47,9.81,4.52,9.6z"/>
	<path d="M5.92,4.24L3.46,3.57C3.32,3.76,3.19,3.95,3.05,4.15l2.7,0.73L5.92,4.24z"/>
	<path d="M4.52,23.71l-3.46,0.93c0.06,0.22,0.13,0.43,0.2,0.63l3.42-0.92C4.61,24.14,4.57,23.92,4.52,23.71z"/>
	<path d="M3.41,29.68c0.15,0.2,0.3,0.39,0.46,0.56L6.6,29.5c-0.1-0.2-0.21-0.4-0.31-0.6L3.41,29.68z"/>
	<path d="M5.23,7.01l-3.24-0.9c-0.09,0.2-0.18,0.4-0.26,0.61l3.3,0.92C5.09,7.43,5.16,7.22,5.23,7.01z"/>
	<path d="M37.25,12.2L33.28,0l-3.96,12.2H16.49l10.38,7.54l-3.96,12.2l10.38-7.54l10.38,7.54l-3.96-12.2l10.38-7.54H37.25z
		 M41.4,28.82l-8.12-5.9l-8.12,5.9l3.1-9.54l-8.12-5.9h10.04l3.1-9.54l3.1,9.54h10.03l-8.12,5.9L41.4,28.82z"/>
	<polygon points="35.62,14.43 33.28,7.23 30.94,14.43 23.37,14.43 29.5,18.88 27.15,26.08 33.28,21.63 39.41,26.08 37.06,18.88 
		43.19,14.43 	"/>
</g>
</svg>
