<svg id="Capa_1" data-name="Capa 1" xmlns="http://www.w3.org/2000/svg" viewBox="0 0 228.06 91.36"><defs><style>.cls-1{fill:#fff;}</style></defs><g id="Capa_1-2" data-name="Capa 1"><path class="cls-1" d="M216.38,13.59a6.28,6.28,0,1,0-.21,0Zm0-11.19a4.77,4.77,0,0,1,4.74,4.81V7.4a4.73,4.73,0,0,1-4.55,4.89h-.16a4.78,4.78,0,0,1-4.82-4.76V7.36a4.81,4.81,0,0,1,4.66-5Z"/><path class="cls-1" d="M215.4,8.09h.67c.8,0,1.17.3,1.28,1a5.8,5.8,0,0,0,.49,1.51h1.55a4.89,4.89,0,0,1-.45-1.6,1.81,1.81,0,0,0-1.13-1.5v0A1.58,1.58,0,0,0,219.09,6a1.74,1.74,0,0,0-.61-1.36,3.88,3.88,0,0,0-2.14-.45A13.14,13.14,0,0,0,214,4.4v6.18h1.44Zm0-2.79a4.22,4.22,0,0,1,.79-.07c.91,0,1.32.38,1.32.94s-.64.91-1.43.91h-.68Z"/><polygon class="cls-1" points="148.06 7.99 148.06 15.26 148.06 31.84 145.7 31.84 145.7 39.11 148.06 39.11 148.06 59.98 156.59 59.98 156.59 39.11 167.48 39.11 167.48 31.84 156.59 31.84 156.59 15.26 169.84 15.26 169.84 7.99 156.59 7.99 148.06 7.99"/><polygon class="cls-1" points="192.89 7.99 184.36 7.99 174.78 7.99 174.78 15.26 184.36 15.26 184.36 59.98 192.89 59.98 192.89 15.26 202.48 15.26 202.48 7.99 192.89 7.99"/><path class="cls-1" d="M35.17,68.53a4.55,4.55,0,1,0-.43,9.09h.43a4.55,4.55,0,0,0,.43-9.09A3.08,3.08,0,0,0,35.17,68.53Zm0,7A2.45,2.45,0,0,1,32.76,73V73a2.42,2.42,0,0,1,4.82,0,2.45,2.45,0,0,1-2.4,2.5h0Z"/><polygon class="cls-1" points="49.48 74.03 49.46 74.03 45.4 68.81 43.18 68.81 43.18 77.34 45.4 77.34 45.4 72.12 45.42 72.12 49.48 77.34 51.7 77.34 51.7 68.81 49.48 68.81 49.48 74.03"/><polygon class="cls-1" points="55.41 77.34 60.27 77.34 60.27 75.47 57.63 75.47 57.63 74 60.13 74 60.13 72.12 57.63 72.12 57.63 70.69 60.27 70.69 60.27 68.81 55.41 68.81 55.41 77.34"/><polygon class="cls-1" points="69.39 70.69 71.22 70.69 71.22 77.34 73.44 77.34 73.44 70.69 75.27 70.69 75.27 68.81 69.39 68.81 69.39 70.69"/><polygon class="cls-1" points="83.76 72.11 80.55 72.11 80.55 68.81 78.34 68.81 78.34 77.34 80.55 77.34 80.55 73.85 83.76 73.85 83.76 77.34 85.97 77.34 85.97 68.81 83.76 68.81 83.76 72.11"/><path class="cls-1" d="M94,68.53a4.55,4.55,0,1,0,4.72,4.39A4.55,4.55,0,0,0,94,68.53Zm0,7A2.45,2.45,0,0,1,91.59,73V73a2.42,2.42,0,0,1,4.82,0,2.45,2.45,0,0,1-2.4,2.5h0Z"/><path class="cls-1" d="M107.17,73.3c0,1.11-.08,2.32-1.51,2.32s-1.5-1.21-1.5-2.32V68.81h-2.22v4.8a3.89,3.89,0,0,0,.89,3,4.68,4.68,0,0,0,5.66,0,3.85,3.85,0,0,0,.89-3v-4.8h-2.21Z"/><path class="cls-1" d="M116.87,72.14,116.3,72c-.39-.12-1-.32-1-.81s.54-.72,1-.72a2.34,2.34,0,0,1,1.47.57l.88-1.72a5.93,5.93,0,0,0-2.67-.7,2.76,2.76,0,0,0-3,2.53c0,.1,0,.2,0,.3,0,1.65.91,2,2.31,2.41.47.13,1.34.35,1.34,1s-.55.86-1.07.86a3,3,0,0,1-2-.88l-1,1.79a5.29,5.29,0,0,0,3,1,3.77,3.77,0,0,0,2.42-.8,2.91,2.91,0,0,0,.88-2.3C119,73.09,118.05,72.49,116.87,72.14Z"/><path class="cls-1" d="M124.8,68.81l-3.28,8.53h2.35l.59-1.48h3.05l.56,1.48h2.36l-3.21-8.53Zm.27,5.35.91-2.71h0l.9,2.71Z"/><polygon class="cls-1" points="139.69 74.03 139.66 74.03 135.6 68.81 133.39 68.81 133.39 77.34 135.6 77.34 135.6 72.12 135.63 72.12 139.69 77.34 141.9 77.34 141.9 68.81 139.69 68.81 139.69 74.03"/><path class="cls-1" d="M148.76,68.81h-3.14v8.53h3.14a4.27,4.27,0,0,0,.41-8.53A2.8,2.8,0,0,0,148.76,68.81Zm-.43,6.65h-.49V70.69h.52a2.39,2.39,0,1,1,.31,4.77,1.61,1.61,0,0,1-.31,0Z"/><polygon class="cls-1" points="162.54 77.34 164.75 77.34 164.75 74 167.18 74 167.18 72.12 164.75 72.12 164.75 70.69 167.43 70.69 167.43 68.81 162.54 68.81 162.54 77.34"/><polygon class="cls-1" points="170.93 77.34 175.78 77.34 175.78 75.47 173.15 75.47 173.15 74 175.65 74 175.65 72.12 173.15 72.12 173.15 70.69 175.78 70.69 175.78 68.81 170.93 68.81 170.93 77.34"/><polygon class="cls-1" points="179.42 77.34 184.27 77.34 184.27 75.47 181.63 75.47 181.63 74 184.13 74 184.13 72.12 181.63 72.12 181.63 70.69 184.27 70.69 184.27 68.81 179.42 68.81 179.42 77.34"/><polygon class="cls-1" points="187.25 70.69 189.08 70.69 189.08 77.34 191.3 77.34 191.3 70.69 193.13 70.69 193.13 68.81 187.25 68.81 187.25 70.69"/><polygon class="cls-1" points="8.27 35.47 0 42.64 24.27 35.47 0 28.28 8.27 35.47"/><path class="cls-1" d="M55.53,18.13v-.71a2.52,2.52,0,0,1,2.55-2.49h3.35A2.52,2.52,0,0,1,64,17.4V31.83h9.81V11.7C73.81,9.7,72.56,8,71,8H48.73c-1.55,0-2.8,1.66-2.8,3.71V31.83h9.6Z"/><polygon class="cls-1" points="30.93 31.84 39.46 31.84 39.46 7.99 37.86 7.99 30.93 7.99 27.46 7.99 27.46 14.93 30.93 14.93 30.93 31.84"/><path class="cls-1" d="M88,18.13a2.38,2.38,0,0,1,.1-.65v-.06a2.53,2.53,0,0,1,2.56-2.49H94a2.52,2.52,0,0,1,2.55,2.49h0V31.83h9.71V11.7c0-2-1.25-3.71-2.8-3.71H81.19c-1.54,0-2.8,1.66-2.8,3.71V31.83H88Z"/><path class="cls-1" d="M121.06,18.13a2.06,2.06,0,0,1,.11-.65v-.06a2.52,2.52,0,0,1,2.55-2.49h3.34a2.53,2.53,0,0,1,2.56,2.49V31.83h9.71V11.7c0-2-1.26-3.71-2.8-3.71H114.26c-1.55,0-2.8,1.66-2.8,3.71V31.83h9.6Z"/><path class="cls-1" d="M48.73,60H71c1.55,0,2.8-1.66,2.8-3.71V39.1H64V51.23a2.52,2.52,0,0,1-2.55,2.49H58.08a2.52,2.52,0,0,1-2.55-2.49h0V39.1h-9.6V56.27C45.93,58.32,47.18,60,48.73,60Z"/><rect class="cls-1" x="30.93" y="39.1" width="8.53" height="20.87"/><path class="cls-1" d="M136.53,60c1.54,0,2.8-1.66,2.8-3.71V39.1h-9.71V51.23a2.53,2.53,0,0,1-2.56,2.49h-3.34a2.52,2.52,0,0,1-2.53-2.24,2.07,2.07,0,0,1-.13-.7V39.1h-9.6V56.27c0,2,1.25,3.71,2.8,3.71Z"/><path class="cls-1" d="M81.19,60h22.27c1.55,0,2.8-1.66,2.8-3.71V39.1H96.55V51.23A2.52,2.52,0,0,1,94,53.72H90.66a2.51,2.51,0,0,1-2.53-2.24,2.07,2.07,0,0,1-.13-.7V39.1H78.39V56.27C78.39,58.32,79.65,60,81.19,60Z"/><path class="cls-1" d="M214.06,70.61l10,2.69c.22-.72.44-1.44.64-2.18l-10.09-2.73C214.42,69.14,214.24,69.88,214.06,70.61Z"/><path class="cls-1" d="M211.51,79.25l9.28,2.51c.31-.68.62-1.38.92-2.1l-9.47-2.56C212,77.83,211.76,78.54,211.51,79.25Z"/><path class="cls-1" d="M216.73,52.44l10.86,2.41c.07-.76.14-1.52.19-2.28l-10.92-2.43C216.82,50.91,216.78,51.68,216.73,52.44Z"/><path class="cls-1" d="M228.05,44.13,217,42.58v2.24h0l11,1.6v-1.6A2.68,2.68,0,0,0,228.05,44.13Z"/><path class="cls-1" d="M216.77,37.74h11c0-.76-.11-1.52-.17-2.27h-11C216.68,36.22,216.72,37,216.77,37.74Z"/><path class="cls-1" d="M225.2,20.56c-.19-.74-.38-1.47-.58-2.19L214.51,21c.16.74.31,1.48.45,2.23Z"/><path class="cls-1" d="M216.16,30.86l10.76-1.66c-.11-.75-.23-1.5-.36-2.23l-10.7,1.64C216,29.36,216.07,30.1,216.16,30.86Z"/><path class="cls-1" d="M215.87,61l10.47,2.91q.21-1.11.39-2.25l-10.56-2.93C216.08,59.46,216,60.21,215.87,61Z"/><path class="cls-1" d="M207.58,88.29l7.93,2.14a18.77,18.77,0,0,0,1.46-2l-8.35-2.26C208.28,86.93,207.93,87.62,207.58,88.29Z"/><path class="cls-1" d="M13,50,.28,53.49l.6,2.18L13.16,52.3C13.11,51.53,13.07,50.76,13,50Z"/><path class="cls-1" d="M13.81,59.31l-12,3.33.61,2.19,11.7-3.25C14,60.83,13.9,60.07,13.81,59.31Z"/><path class="cls-1" d="M17.85,77.67l-11.14,3c.31.72.64,1.41,1,2.09l10.92-3A22.18,22.18,0,0,1,17.85,77.67Z"/><path class="cls-1" d="M15.48,20.64,3.63,17.39c-.21.71-.41,1.44-.61,2.18l12,3.29C15.16,22.11,15.31,21.37,15.48,20.64Z"/><path class="cls-1" d="M20.29,2.28,11.86,0c-.47.62-.94,1.28-1.39,2L19.7,4.5Z"/><path class="cls-1" d="M15.47,69,3.61,72.18c.22.74.44,1.46.67,2.17L16,71.19C15.8,70.46,15.64,69.72,15.47,69Z"/><path class="cls-1" d="M11.69,89.44c.51.68,1,1.32,1.55,1.92l9.37-2.53c-.36-.67-.72-1.35-1.06-2.06Z"/><path class="cls-1" d="M17.92,11.78,6.83,8.7q-.47,1-.9,2.1l11.29,3.14C17.45,13.21,17.68,12.49,17.92,11.78Z"/></g></svg>