<svg id="Capa_1" data-name="Capa 1" xmlns="http://www.w3.org/2000/svg" viewBox="0 0 10.09 13.12"><defs><style>.cls-1{fill:#1d1d1b;}</style></defs><path class="cls-1" d="M7.25,7.84A6.09,6.09,0,0,0,8.8,4.63,4.2,4.2,0,0,0,8,1.21,3.54,3.54,0,0,0,5.18,0,5.44,5.44,0,0,0,.06,4.65,4.29,4.29,0,0,0,.9,8.1,3.54,3.54,0,0,0,3.69,9.31,4.48,4.48,0,0,0,6,8.71l0,0,.53.79,2.38,3.65,1.16-1L7.22,7.88ZM7.12,4.6h0a3.76,3.76,0,0,1-.86,1.89A6.82,6.82,0,0,1,5,7.49a2.22,2.22,0,0,1-1,.25A2.16,2.16,0,0,1,2.26,7a2.85,2.85,0,0,1-.53-2.29C2,3.19,3.18,1.55,4.91,1.55a2.09,2.09,0,0,1,1.62.73A2.88,2.88,0,0,1,7.12,4.6Z"/></svg>